<?xml version="1.0" encoding="utf-8"?>
<svg version="1.1" id="_x3C_Layer_x3E_" xmlns="http://www.w3.org/2000/svg" xmlns:xlink="http://www.w3.org/1999/xlink" x="0px"
	 y="0px" viewBox="0 0 2848 1780" style="enable-background:new 0 0 2848 1780;" xml:space="preserve">
<g>
	<path style="fill:#EBF3FA;" d="M2621.938,1299.194c-1.003,7.325-2.054,14.595-3.147,21.804H185.687
		c1.979-25.669,6.109-51.775,12.556-78.275c23.383-96.043,53.269-172.562,88.44-233.445c2.304-3.994,4.634-7.922,6.994-11.78
		c20.827-34.2,43.412-63.207,67.521-87.796c5.401-5.513,10.884-10.804,16.44-15.881c22.321-20.402,45.834-37.357,70.353-51.419
		c3.086-1.771,6.19-3.491,9.306-5.175c139.448-75.106,310.232-60.847,480.993-57.252c4.585,0.099,9.163,0.19,13.747,0.265
		c29.881,0.521,59.729,0.626,89.388-0.209c7.129-0.202,14.252-0.454,21.362-0.774c26.4-1.181,52.611-3.221,78.516-6.496
		c3.33-0.418,6.654-0.86,9.98-1.321c65.738-9.169,129.389-26.685,188.969-58.85c716.94-387.047,1122.301-192.559,1248.39,172.776
		v0.006c1.296,3.731,2.55,7.484,3.778,11.253c3.645,11.135,7.025,22.431,10.153,33.867c5.789,21.165,10.712,42.811,14.774,64.873
		c0,0,0,0,0,0.006c1.363,7.418,2.63,14.872,3.797,22.382v0.007c1.112,7.135,2.139,14.301,3.072,21.509v0.007
		C2634.979,1122.196,2634.125,1210.021,2621.938,1299.194z"/>
	<g>
		<g>
			<g>
				<path style="fill:#EFA26F;" d="M455.742,1116.261l-14.078,39.351c0,0-8.67,0.485-10.323,9.938
					c-1.653,9.452-2.425,61.648-2.425,61.648l-38.214-14.917c0.695-1.654,8.367-60.357,7.194-69.279
					c-1.158-8.925-14.107-23.757-2.824-42.134c6.139-9.991,5.685-22.217,4.017-31.261c-0.622-3.311-1.392-6.198-2.08-8.399
					c-0.354-1.153-0.047-2.277,0.641-3.077c0.751-0.873,1.942-1.34,3.205-1.028c3.248,0.822,7.342,2.827,10.581,7.582
					c2.371,3.455,2.901,9.358,4.351,15.212c5.813-5.724,19.581-5.43,25.78-3.334
					C452.172,1080.133,455.742,1116.261,455.742,1116.261z"/>
				<path style="fill:#FFC197;" d="M400.191,1069.143l-1.102,0.465c-0.622-3.311-3.896-9.735-4.585-11.938
					c-0.353-1.152,1.962-0.964,2.881-0.215c0.571,0.289,1.319,1.422,1.645,2.017c0.945,1.712,2.129,4.034,2.777,6.106
					C402.274,1067.015,401.59,1068.56,400.191,1069.143z"/>
			</g>
			<g>
				<g>
					<path style="fill:#EFCBAB;" d="M444.011,1162.676l-1.151,0.342c-3.773,1.12-7.369,0.168-7.994-2.117l-38.753-141.573
						l8.511-2.527l44.83,139.851C450.163,1158.865,447.715,1161.575,444.011,1162.676z"/>
				</g>
				<path style="fill:#EFCBAB;" d="M493.571,994.107l-184.787,54.871c-5.212,1.548-10.743-1.45-12.291-6.662l-50.65-170.572
					c-1.547-5.212,1.451-10.742,6.662-12.29l184.787-54.871c5.212-1.548,10.742,1.449,12.29,6.661l50.651,170.572
					C501.781,987.029,498.783,992.56,493.571,994.107z"/>
				<path style="fill:#FCECDB;" d="M457.431,995.079l-117.832,34.99c-18.322,5.44-37.763-5.099-43.204-23.42l-31.168-104.964
					c-5.44-18.321,5.099-37.764,23.42-43.204l117.831-34.99c18.322-5.439,37.764,5.1,43.204,23.421l31.169,104.964
					C486.291,970.197,475.752,989.639,457.431,995.079z"/>
				<g>
					<path style="fill:#B2443B;" d="M420.189,963.124c-1.702-5.728-5.869-7.607-12.494-5.642l-10.25,3.049l-19.808-66.711
						l-4.4-14.815c-1.524-5.126-2.87-8.193-4.05-9.212c-1.174-1.015-3.318-1.065-6.435-0.136c-3.214,0.952-7.399,2.415-12.556,4.382
						c-5.149,1.966-8.818,3.711-10.988,5.228c-4.276,2.914-5.874,6.171-4.799,9.79c1.493,5.027,5.248,6.638,11.277,4.85l9.943-2.956
						l5.567,18.75l16.809,56.601l-11.757,3.49c-6.73,1.997-9.23,5.912-7.497,11.738c0.835,2.815,2.464,4.708,4.885,5.679
						c2.422,0.977,5.083,1.032,8.002,0.166l41.285-12.26C419.557,973.148,421.977,969.148,420.189,963.124z"/>
				</g>
			</g>
			<g>
				<path style="fill:#FFB27D;" d="M444.163,1078.803l-28.391,14.014c-2.372,1.258-4.517,0.844-5.775-1.527l-2.341-4.415
					c-1.257-2.371-0.346-5.34,2.025-6.597l22.336-13.272c2.92-1.691,6.764-0.647,8.674,1.561
					C440.692,1068.565,448.905,1076.547,444.163,1078.803z"/>
				<path style="fill:#FFB27D;" d="M452.215,1091.986l-28.807,15.272c-3.746,1.986-8.436,0.546-10.423-3.2l0,0
					c-1.986-3.746-0.546-8.437,3.2-10.423l28.807-15.272c3.746-1.986,7.175-3.207,10.423,3.2l0,0
					C458.887,1086.593,455.962,1090,452.215,1091.986z"/>
				<path style="fill:#FFB27D;" d="M455.717,1104.242l-23.369,11.079c-3.233,1.714-6.605,1.425-8.319-1.808l0,0
					c-1.714-3.233-0.472-7.282,2.762-8.996l22.694-12.031c3.231-1.714,6.414-3.576,8.994,2.762l0,0
					C460.615,1099.577,458.976,1102.595,455.717,1104.242z"/>
				<path style="fill:#FFB27D;" d="M459.762,1114.803l-13.305,7.054c-2.79,1.479-6.282,0.406-7.762-2.383l0,0
					c-1.478-2.79-0.406-6.282,2.383-7.761l13.305-7.055c2.79-1.479,6.282-0.406,7.762,2.383l0,0
					C463.624,1109.831,462.552,1113.323,459.762,1114.803z"/>
				<path style="fill:#FFC197;" d="M408.232,1084.021c1.636-1.087,3.86-2.445,5.873-3.267c1.392-0.567,2.986-0.01,3.682,1.323
					l1.999,3.831c0.692,1.328,0.2,2.971-1.119,3.682c-1.621,0.874-3.894,2.005-6.2,2.846c-1.618,0.591-3.42-0.15-4.178-1.696
					l-1.206-2.46C406.345,1086.77,406.833,1084.951,408.232,1084.021z"/>
				<path style="fill:#FFC197;" d="M412.864,1099.09c1.619-1.076,3.82-2.42,5.813-3.233c1.378-0.562,2.954-0.009,3.642,1.311
					l1.979,3.791c0.686,1.314,0.198,2.94-1.107,3.644c-1.605,0.864-3.853,1.984-6.137,2.816c-1.601,0.583-3.384-0.148-4.134-1.679
					l-1.192-2.436C410.995,1101.811,411.479,1100.011,412.864,1099.09z"/>
				<path style="fill:#FFC197;" d="M423.371,1108.909c1.376-0.915,3.248-2.058,4.941-2.748c1.171-0.478,2.512-0.008,3.097,1.113
					l1.682,3.223c0.583,1.118,0.169,2.5-0.941,3.098c-1.363,0.735-3.275,1.687-5.216,2.394c-1.361,0.498-2.878-0.126-3.515-1.427
					l-1.015-2.07C421.782,1111.223,422.193,1109.691,423.371,1108.909z"/>
				<path style="fill:#FFC197;" d="M438.174,1115.91c1.194-0.794,2.817-1.786,4.286-2.385c1.017-0.414,2.18-0.007,2.686,0.966
					l1.459,2.795c0.506,0.97,0.146,2.169-0.816,2.688c-1.183,0.638-2.841,1.463-4.525,2.076c-1.18,0.432-2.495-0.109-3.048-1.237
					l-0.88-1.796C436.797,1117.916,437.153,1116.588,438.174,1115.91z"/>
			</g>
			<path style="fill:#F99746;" d="M449.8,1320.998h-77.404c3.46-43.824,21.005-161.475,21.005-161.475s1.402,0.369,3.682,1.095
				c7.903,2.501,26.334,9.23,33.149,19.347c0.707,1.044,1.29,2.119,1.721,3.238C431.952,1183.203,451.237,1284.261,449.8,1320.998z"
				/>
		</g>
		<g>
			<g>
				<path style="fill:#EFA26F;" d="M1220.5,1259.507c0.603,19.604,3.152,51.505,3.589,52.71l-26.567,8.781h-10.668
					c0.294-8.296,0.982-29.246,1.008-43.308c0.019-5.604-0.074-10.115-0.339-12.298c-0.417-3.502-1.898-5.794-3.559-7.294
					c-2.795-2.514-5.168-5.45-6.944-8.721c-0.97-1.782-1.764-3.662-2.354-5.629l-3.877-12.968l-3.902-13.034l-0.24-0.805
					c0,0,0.707-4.665,2.127-10.706c0.012-0.062,0.024-0.111,0.043-0.166v-0.006c0.854-3.645,1.967-7.768,3.331-11.664
					c0.085-0.252,0.172-0.511,0.265-0.763c1.842-5.101,4.123-9.722,6.839-12.224c0.006-0.006,0.006-0.006,0.013-0.006
					c0.939-0.873,1.93-1.487,2.975-1.775c3.601-1.015,9.759-1.272,15.259-0.093c3.718,0.799,7.136,2.262,9.269,4.591
					c0.276-0.903,0.528-1.813,0.768-2.711c1.223-4.597,2.119-8.972,4.167-11.646c1.438-1.893,3.011-3.282,4.578-4.308
					c2.071-1.352,4.148-2.064,5.942-2.415c1.094-0.21,2.108,0.172,2.789,0.885c0.081,0.086,0.16,0.172,0.229,0.265
					c0.62,0.799,0.854,1.893,0.46,2.974c-0.773,2.077-1.658,4.807-2.42,7.946c-2.054,8.58-3.11,20.269,2.268,30.15
					c9.876,18.173-3.276,31.724-4.843,40.217C1220.303,1247.633,1220.285,1252.869,1220.5,1259.507z"/>
				<path style="fill:#FFC197;" d="M1222.248,1174.618l1.031,0.502c0.764-3.141,4.227-9.13,4.997-11.203
					c0.396-1.087-1.83-1.023-2.748-0.353c-0.563,0.248-1.337,1.296-1.678,1.849c-0.993,1.592-2.244,3.757-2.971,5.709
					C1220.36,1172.475,1220.938,1173.989,1222.248,1174.618z"/>
			</g>
			<g>
				<g>
					<path style="fill:#EFCBAB;" d="M1157.228,1271.976l1.076,0.532c3.528,1.744,7.233,1.416,8.237-0.73l62.197-132.952
						l-7.959-3.934l-67.895,130.224C1151.81,1267.178,1153.764,1270.264,1157.228,1271.976z"/>
				</g>
				<path style="fill:#EFCBAB;" d="M1136.967,1097.444l172.808,85.411c4.873,2.409,10.833,0.392,13.241-4.481l78.84-159.515
					c2.409-4.874,0.392-10.833-4.481-13.242l-172.807-85.409c-4.874-2.409-10.833-0.393-13.243,4.482l-78.839,159.514
					C1130.076,1089.077,1132.093,1095.036,1136.967,1097.444z"/>
				<path style="fill:#FCECDB;" d="M1172.42,1104.531l110.191,54.463c17.135,8.469,38.082,1.379,46.55-15.755l48.516-98.158
					c8.468-17.134,1.378-38.081-15.756-46.55l-110.192-54.463c-17.134-8.468-38.081-1.379-46.55,15.756l-48.515,98.158
					C1148.195,1075.115,1155.286,1096.063,1172.42,1104.531z"/>
				<path style="fill:#B2443B;" d="M1313.12,1005.234l-33.574-14.185c-3.742-1.585-6.63-2.046-8.646-1.389
					c-2.022,0.657-4.067,2.753-6.146,6.293c-9.016,15.008-14.73,24.681-17.14,29.007c-0.166,0.394-1.039,1.77-2.612,4.124
					c-1.173,1.948-1.886,3.214-2.133,3.804c-2.458,5.819-1.419,9.686,3.117,11.603c2.162,0.916,5.506,1.543,10.011,1.881
					c4.505,0.332,7.841,0.959,10.011,1.874c11.437,4.837,14.492,13.563,9.157,26.181c-2.415,5.722-6.079,9.777-10.989,12.181
					c-4.904,2.396-10.22,2.391-15.936-0.025c-4.928-2.083-9.138-5.868-12.635-11.355c-3.491-5.483-6.071-8.581-7.75-9.286
					c-2.169-0.916-4.295-0.83-6.385,0.263c-2.089,1.095-3.589,2.724-4.511,4.893c-1.081,2.563-1.106,5.519-0.08,8.855
					c1.573,5.082,4.788,9.98,9.648,14.706c4.449,4.32,9.336,7.608,14.657,9.858c7.787,3.287,15.702,4.222,23.741,2.796
					c8.037-1.42,15.037-5.058,20.993-10.908c3.976-3.902,7.27-8.954,9.895-15.167c4-9.464,4.584-18.689,1.757-27.668
					c-2.87-9.457-8.985-16.169-18.356-20.133c-3.848-1.622-8.156-2.575-12.919-2.852l12.009-20.016l27.932,11.805
					c6.896,2.914,11.517,1.586,13.877-3.988C1322.547,1012.621,1320.218,1008.232,1313.12,1005.234z"/>
			</g>
			<g>
				<path style="fill:#FFB27D;" d="M1179.636,1181.646l26.488,14.862c2.207,1.324,4.283,1.037,5.607-1.171l2.467-4.111
					c1.324-2.207,0.602-5.097-1.606-6.422l-20.724-13.846c-2.712-1.768-6.447-0.963-8.389,1.057
					C1183.479,1172.015,1175.209,1179.244,1179.636,1181.646z"/>
				<path style="fill:#FFB27D;" d="M1171.256,1193.866l26.821,16.09c3.488,2.092,8.054,0.95,10.146-2.538l0,0
					c2.093-3.488,0.951-8.055-2.538-10.146l-26.821-16.09c-3.488-2.092-6.711-3.436-10.146,2.538l0,0
					C1165.138,1188.361,1167.767,1191.774,1171.256,1193.866z"/>
				<path style="fill:#FFB27D;" d="M1167.28,1205.43l21.826,11.797c3.01,1.806,6.254,1.699,8.06-1.311l0,0
					c1.807-3.012,0.821-6.952-2.189-8.757l-21.13-12.676c-3.011-1.806-5.964-3.75-8.757,2.19l0,0
					C1162.825,1200.713,1164.242,1203.686,1167.28,1205.43z"/>
				<path style="fill:#FFB27D;" d="M1162.87,1215.34l12.389,7.433c2.597,1.558,5.997,0.707,7.555-1.89l0,0
					c1.559-2.598,0.708-5.997-1.89-7.556l-12.388-7.431c-2.598-1.559-5.997-0.709-7.556,1.889l0,0
					C1159.423,1210.383,1160.273,1213.783,1162.87,1215.34z"/>
				<path style="fill:#FFC197;" d="M1213.791,1188.464c-1.512-1.125-3.573-2.539-5.461-3.427c-1.304-0.615-2.859-0.161-3.594,1.081
					l-2.108,3.567c-0.73,1.238-0.343,2.837,0.886,3.585c1.508,0.918,3.628,2.117,5.796,3.04c1.52,0.646,3.283,0.028,4.087-1.414
					l1.279-2.297C1215.461,1191.192,1215.085,1189.425,1213.791,1188.464z"/>
				<path style="fill:#FFC197;" d="M1208.592,1202.665c-1.496-1.114-3.538-2.513-5.404-3.392c-1.292-0.608-2.83-0.159-3.557,1.069
					l-2.086,3.532c-0.725,1.225-0.34,2.806,0.876,3.547c1.492,0.908,3.59,2.094,5.735,3.008c1.504,0.641,3.25,0.029,4.045-1.398
					l1.267-2.273C1210.243,1205.365,1209.871,1203.616,1208.592,1202.665z"/>
				<path style="fill:#FFC197;" d="M1198.028,1211.539c-1.271-0.946-3.007-2.136-4.594-2.884c-1.098-0.517-2.405-0.135-3.023,0.91
					l-1.773,3.002c-0.615,1.042-0.288,2.386,0.745,3.016c1.269,0.772,3.052,1.78,4.875,2.558c1.279,0.544,2.763,0.024,3.439-1.189
					l1.076-1.933C1199.434,1213.835,1199.117,1212.348,1198.028,1211.539z"/>
				<path style="fill:#FFC197;" d="M1183.494,1217.495c-1.104-0.821-2.608-1.854-3.985-2.501c-0.952-0.448-2.087-0.117-2.622,0.789
					l-1.539,2.604c-0.534,0.902-0.25,2.07,0.646,2.616c1.101,0.67,2.647,1.544,4.229,2.218c1.108,0.472,2.396,0.021,2.982-1.031
					l0.934-1.676C1184.712,1219.486,1184.438,1218.196,1183.494,1217.495z"/>
			</g>
			<path style="fill:#FFB93E;" d="M1231.329,1320.998h-53.037c4.278-22.916,8.045-40.518,8.045-40.518
				c0.399-0.959,0.909-1.893,1.524-2.79c6.674-9.814,25.073-15.99,32.639-18.184c2.064-0.597,3.324-0.898,3.324-0.898
				S1227.432,1287.204,1231.329,1320.998z"/>
		</g>
		<g>
			<g>
				<path style="fill:#EFA26F;" d="M2451.826,1140.225l11.696,37.661c0,0,8.154,0.805,9.334,9.782
					c1.181,8.978-9.031,62.106-9.031,62.106l50.577-7.571c-0.589-1.587-10.577-66.087-9.114-74.452
					c1.449-8.367,14.251-21.831,4.351-39.607c-5.387-9.664-4.471-21.172-2.537-29.63c0.721-3.097,1.563-5.788,2.299-7.836
					c0.38-1.072,0.135-2.146-0.481-2.927c-0.672-0.853-1.776-1.341-2.979-1.098c-3.094,0.646-7.035,2.37-10.279,6.724
					c-2.374,3.162-3.109,8.707-4.71,14.167c-5.251-5.628-18.242-5.903-24.171-4.175
					C2456.639,1106.309,2451.826,1140.225,2451.826,1140.225z"/>
				<path style="fill:#FFC197;" d="M2506.084,1098.03l1.018,0.483c0.721-3.097,4.064-9.022,4.802-11.071
					c0.379-1.072-1.812-0.986-2.706-0.317c-0.552,0.249-1.303,1.287-1.633,1.835c-0.96,1.576-2.168,3.718-2.862,5.646
					C2504.204,1095.94,2504.787,1097.426,2506.084,1098.03z"/>
			</g>
			<g>
				<g>
					<path style="fill:#EFCBAB;" d="M2452.635,1203.421l1.132,0.399c3.711,1.311,7.351,0.542,8.092-1.708l45.878-139.428
						l-8.371-2.955l-51.861,137.397C2446.683,1199.304,2448.99,1202.135,2452.635,1203.421z"/>
				</g>
				<path style="fill:#EFCBAB;" d="M2411.681,1032.558l181.769,64.167c5.127,1.811,10.802-0.904,12.611-6.031l59.232-167.786
					c1.81-5.126-0.904-10.802-6.031-12.611l-181.768-64.167c-5.127-1.81-10.803,0.904-12.612,6.03l-59.231,167.786
					C2403.84,1025.072,2406.555,1030.748,2411.681,1032.558z"/>
				<path style="fill:#FCECDB;" d="M2447.726,1035.36l115.907,40.917c18.022,6.362,37.974-3.178,44.337-21.2l36.447-103.248
					c6.362-18.023-3.178-37.974-21.2-44.336l-115.907-40.917c-18.022-6.362-37.974,3.178-44.335,21.2l-36.449,103.248
					C2420.164,1009.047,2429.703,1028.998,2447.726,1035.36z"/>
				<path style="fill:#B2443B;" d="M2515.146,904.226c-0.387-1.542-2.156-2.839-5.298-3.89c-3.251-1.088-7.607-2.317-13.071-3.694
					c-5.463-1.376-9.55-2.065-12.261-2.065c-5.279-0.074-8.53,1.715-9.753,5.371c-1.695,5.076,0.498,8.629,6.588,10.669
					l10.055,3.361l-25.461,76.125l-11.88-3.97c-6.803-2.274-11.185-0.468-13.151,5.42c-0.952,2.846-0.7,5.384,0.75,7.614
					c1.457,2.236,3.65,3.848,6.594,4.83l41.723,13.951c6.699,2.243,11.068,0.319,13.102-5.771c1.936-5.79-0.442-9.802-7.141-12.04
					l-10.355-3.466l27.545-82.368C2514.863,909.124,2515.533,905.768,2515.146,904.226z"/>
				<path style="fill:#B2443B;" d="M2621.175,957.206c-2.187-12.334-8.388-21.239-18.602-26.715c-2.2-1.18-4.585-2.199-7.159-3.06
					c-14.517-4.855-27.349-2.09-38.49,8.29c-8.708,8.148-15.689,20.09-20.951,35.822c-5.266,15.733-6.832,29.542-4.713,41.421
					c2.655,15.002,11.197,24.908,25.608,29.726c14.411,4.818,27.194,2.041,38.343-8.339c8.837-8.217,15.892-20.187,21.152-35.928
					c0.345-1.025,0.67-2.045,0.984-3.054c0-0.006,0-0.006,0-0.006C2621.82,980.903,2623.093,968.188,2621.175,957.206z
					 M2596.594,991.732c-3.362,10.066-7.271,18.037-11.714,23.9c-6.754,9.046-14.085,12.248-22.001,9.599
					c-13.705-4.585-16.071-20.293-7.086-47.148c3.331-9.962,7.283-17.915,11.867-23.845c6.681-8.844,14.029-11.929,22.051-9.25
					c7.816,2.618,11.768,9.532,11.854,20.761C2601.547,973.203,2599.894,981.868,2596.594,991.732z"/>
			</g>
			<g>
				<path style="fill:#FFB27D;" d="M2464.243,1105.377l26.203,14.348c2.185,1.281,4.224,0.977,5.504-1.209l2.384-4.068
					c1.28-2.185,0.54-5.02-1.645-6.3l-20.525-13.406c-2.685-1.712-6.351-0.882-8.239,1.123
					C2467.925,1095.864,2459.862,1103.06,2464.243,1105.377z"/>
				<path style="fill:#FFB27D;" d="M2456.125,1117.482l26.544,15.552c3.452,2.022,7.932,0.853,9.954-2.6l0,0
					c2.022-3.452,0.853-7.932-2.599-9.954l-26.546-15.552c-3.451-2.022-6.635-3.311-9.953,2.6l0,0
					C2450.051,1112.13,2452.672,1115.459,2456.125,1117.482z"/>
				<path style="fill:#FFB27D;" d="M2452.332,1128.896l21.587,11.38c2.979,1.746,6.171,1.607,7.915-1.372l0,0
					c1.746-2.979,0.736-6.845-2.244-8.59l-20.911-12.252c-2.979-1.745-5.903-3.628-8.591,2.243l0,0
					C2447.901,1124.301,2449.327,1127.212,2452.332,1128.896z"/>
				<path style="fill:#FFB27D;" d="M2448.096,1138.689l12.261,7.183c2.571,1.506,5.905,0.635,7.412-1.936l0,0
					c1.506-2.57,0.635-5.905-1.936-7.412l-12.261-7.183c-2.57-1.506-5.906-0.635-7.412,1.936l0,0
					C2444.654,1133.848,2445.525,1137.183,2448.096,1138.689z"/>
				<path style="fill:#FFC197;" d="M2497.906,1111.734c-1.498-1.091-3.541-2.461-5.406-3.315c-1.289-0.591-2.813-0.128-3.523,1.101
					l-2.037,3.531c-0.707,1.225-0.309,2.794,0.908,3.517c1.492,0.889,3.589,2.044,5.73,2.931c1.501,0.621,3.23-0.005,4.006-1.432
					l1.235-2.272C2499.576,1114.401,2499.188,1112.668,2497.906,1111.734z"/>
				<path style="fill:#FFC197;" d="M2492.938,1125.755c-1.484-1.079-3.506-2.435-5.352-3.28c-1.276-0.585-2.784-0.127-3.486,1.089
					l-2.017,3.494c-0.7,1.212-0.304,2.765,0.898,3.48c1.478,0.879,3.553,2.023,5.671,2.899c1.486,0.615,3.197-0.004,3.965-1.417
					l1.223-2.247C2494.589,1128.395,2494.206,1126.678,2492.938,1125.755z"/>
				<path style="fill:#FFC197;" d="M2482.639,1134.592c-1.262-0.918-2.98-2.07-4.549-2.789c-1.085-0.498-2.367-0.108-2.965,0.926
					l-1.713,2.971c-0.595,1.029-0.26,2.35,0.763,2.958c1.256,0.747,3.021,1.721,4.822,2.466c1.263,0.521,2.717-0.004,3.369-1.205
					l1.04-1.911C2484.043,1136.835,2483.717,1135.376,2482.639,1134.592z"/>
				<path style="fill:#FFC197;" d="M2468.402,1140.598c-1.093-0.796-2.584-1.796-3.945-2.42c-0.94-0.431-2.053-0.093-2.571,0.803
					l-1.486,2.577c-0.516,0.895-0.225,2.038,0.663,2.567c1.089,0.647,2.619,1.492,4.182,2.138c1.096,0.454,2.357-0.004,2.923-1.045
					l0.901-1.657C2469.621,1142.544,2469.338,1141.278,2468.402,1140.598z"/>
			</g>
			<path style="fill:#F99746;" d="M2525.472,1320.998h-71.787c0.646-11.405,2.366-25.786,4.511-40.566
				c0.891-6.164,1.855-12.39,2.852-18.498c0.215-1.328,0.431-2.655,0.639-3.964c0.246-1.475,0.492-2.943,0.738-4.4
				c0.239-1.401,0.473-2.796,0.713-4.173c0.498-2.919,1.002-5.771,1.487-8.536c0.289-0.024,0.584-0.056,0.878-0.079
				c9.754-0.947,24.405-2.944,32.455-6.896c5.391-2.648,10.183-4.978,14.006-6.458c0.923-0.356,1.782-0.664,2.588-0.91
				c0.94,7.368,1.936,15.223,2.938,23.267C2520.585,1274.803,2523.719,1301.634,2525.472,1320.998z"/>
			<path style="fill:#ED7D2B;" d="M2517.491,1249.785c0,0-53.012,17.477-59.298,30.646c0.895-6.162,1.855-12.39,2.852-18.498
				c0.221-1.328,0.431-2.656,0.645-3.965c2.104-1.869,4.696-3.16,7.852-3.473L2517.491,1249.785z"/>
			<path style="fill:#F99746;" d="M2517.491,1249.785c-13.992,5.617-43.755,13.037-56.446,12.148
				c-1.648-0.115-3.011-0.37-4.012-0.791c0,0-2.768-1.911-1.922-4.911c0.088-0.305,0.209-0.634,0.388-0.969
				c1.132-2.209-1.222-6.44-1.819-9.677c-0.369-1.961-0.084-3.545,2.018-4.083c0,0,3.641-0.161,8.925-0.645
				c9.739-0.906,25.041-2.897,33.333-6.975c6.696-3.287,12.462-6.08,16.596-7.366c3.766-1.166,6.162-1.083,6.641,1.007
				c1.004,4.395,1.315,12.912,3.754,17.372C2525.53,1245.976,2522.533,1247.763,2517.491,1249.785z"/>
			<path style="fill:#ED7D2B;" d="M2471.611,1251.31c-1.557,0.34-14.469,3.242-16.5,4.922c0.088-0.305,0.209-0.634,0.388-0.969
				c1.132-2.209-1.222-6.44-1.819-9.677c0.99,0.879,5.906,4.689,15.504,3.953C2480.015,1248.712,2473.315,1250.943,2471.611,1251.31
				z"/>
		</g>
		<g>
			<path style="fill:#EFA26F;" d="M650.235,1172.602c0,0.093-0.005,0.19-0.012,0.289c-0.178,4.996-0.565,8.646-0.565,8.646
				l-0.774,1.26l-14.663,23.986c-0.996,1.642-2.305,3.079-3.847,4.186c-1.112,0.799-2.349,1.432-3.682,1.837
				c-2.028,0.62-4.376,2.035-5.937,5.175c-0.166,0.32-0.32,0.664-0.461,1.026c0,0-1.297,39.092-4.29,76.739
				c-0.694,8.659-1.475,17.244-2.354,25.252h-64.19c4.186-12.187,9.36-26.623,14.719-41.267c0.013-0.013,0.013-0.013,0.013-0.013
				c14.989-40.979,31.409-83.642,31.409-83.642c0.166-0.854,0.283-1.555,0.326-2.076c0.59-7.769-7.768-22.616,5.032-36.204
				c6.964-7.381,8.727-17.828,8.905-25.774c0.056-2.926-1.579-8.941-1.775-10.927c-0.092-1.045,1.838-0.467,2.477,0.32
				c0.123,0.104,0.252,0.264,0.363,0.454c0.761-0.467,1.732-0.578,2.636-0.142c2.612,1.267,5.728,3.693,7.633,8.291
				c0.498,1.186,0.743,2.594,0.86,4.154c0.142,1.825,0.11,3.859,0.104,5.979c-0.006,0.989,0,1.997,0.03,3.011
				c0,0.173,0.007,0.345,0.012,0.518c0.13-0.087,0.265-0.167,0.4-0.24c2.876-1.653,6.92-1.924,10.883-1.457
				c4.37,0.522,8.647,1.936,11.155,3.411c1.051,0.614,1.917,1.646,2.625,2.98c0.042,0.073,0.085,0.147,0.116,0.228
				c1.579,3.098,2.359,7.713,2.704,12.518c0.012,0.173,0.024,0.352,0.037,0.529C650.371,1165.43,650.352,1169.296,650.235,1172.602z
				"/>
			<g>
				<g>
					<path style="fill:#EFCBAB;" d="M623.022,1218.181l-1.197-0.08c-3.927-0.262-6.968-2.405-6.759-4.765l12.914-146.213
						l8.858,0.591l-6.617,146.712C630.116,1216.749,626.878,1218.438,623.022,1218.181z"/>
				</g>
				<path style="fill:#EFCBAB;" d="M728.126,1077.38l-192.334-12.834c-5.425-0.362-9.567-5.097-9.205-10.521l11.848-177.54
					c0.361-5.424,5.097-9.566,10.521-9.204l192.334,12.834c5.425,0.362,9.566,5.097,9.204,10.521l-11.847,177.539
					C738.285,1073.6,733.551,1077.742,728.126,1077.38z"/>
				<path style="fill:#FCECDB;" d="M693.904,1065.721l-122.645-8.186c-19.07-1.272-33.632-17.916-32.358-36.986l7.289-109.25
					c1.273-19.069,17.917-33.63,36.987-32.357l122.645,8.184c19.069,1.273,33.631,17.916,32.358,36.986l-7.291,109.25
					C729.617,1052.431,712.975,1066.992,693.904,1065.721z"/>
				<path style="fill:#B2443B;" d="M648.122,989.593c9.009-10.054,14.982-17.083,17.92-21.085
					c5.292-7.289,8.168-14.516,8.628-21.688c0.616-9.624-2.242-17.76-8.572-24.392c-6.14-6.306-14.073-9.765-23.79-10.393
					c-8.867-0.564-16.531,1.04-22.99,4.807c-6.797,3.963-11.737,9.974-14.828,18.031c-1.427,3.772-2.25,7.528-2.489,11.264
					c-0.216,3.313,0.467,6.042,2.046,8.175c1.665,2.47,4.105,3.804,7.308,4.006c3.631,0.234,6.36-1.303,8.179-4.621
					c0.485-0.934,1.672-4.4,3.559-10.393c1.476-4.621,3.281-7.725,5.427-9.304c3.153-2.372,6.76-3.43,10.816-3.171
					c4.166,0.27,7.498,1.85,9.992,4.744c2.495,2.895,3.614,6.428,3.343,10.589c-0.239,3.742-2.082,8.235-5.524,13.483
					c-4.093,5.211-7.232,9.083-9.434,11.621c-6.385,7.639-14.313,16.679-23.777,27.114c-6.201,6.471-10.913,11.319-14.122,14.54
					c-2.194,2.434-3.349,4.615-3.472,6.539c-0.393,6.084,3.207,9.372,10.791,9.857l52.551,3.367
					c8.438,0.535,12.851-2.205,13.237-8.247c0.399-6.243-3.564-9.636-11.897-10.171l-34.605-2.213
					C636.262,1002.266,643.5,994.78,648.122,989.593z"/>
			</g>
			<g>
				<path style="fill:#FFB27D;" d="M646.138,1148.846l-27.043,4.443c-2.279,0.442-3.952-0.441-4.396-2.722l-0.824-4.245
					c-0.442-2.281,1.061-4.51,3.342-4.952l21.841-5.356c2.845-0.663,5.764,1.171,6.788,3.48
					C645.846,1139.494,650.633,1148.174,646.138,1148.846z"/>
				<path style="fill:#FFB27D;" d="M649.479,1161.793l-27.705,5.379c-3.602,0.7-7.122-1.675-7.822-5.277l0,0
					c-0.699-3.604,1.676-7.124,5.278-7.823l27.704-5.38c3.604-0.7,6.75-0.846,7.822,5.279l0,0
					C656.363,1159.01,653.081,1161.093,649.479,1161.793z"/>
				<path style="fill:#FFB27D;" d="M649.287,1172.824l-22.144,3.278c-3.109,0.604-5.829-0.486-6.433-3.596l0,0
					c-0.604-3.109,1.446-6.147,4.556-6.751l21.824-4.238c3.109-0.604,6.214-1.343,6.751,4.556l0,0
					C654.519,1170.196,652.401,1172.281,649.287,1172.824z"/>
				<path style="fill:#FFB27D;" d="M649.973,1182.588l-12.795,2.484c-2.684,0.521-5.305-1.247-5.825-3.93l0,0
					c-0.521-2.684,1.247-5.305,3.931-5.825l12.795-2.485c2.684-0.521,5.304,1.247,5.825,3.931l0,0
					C654.425,1179.445,652.655,1182.066,649.973,1182.588z"/>
				<path style="fill:#FFC197;" d="M615.07,1144.104c1.629-0.487,3.815-1.052,5.688-1.224c1.297-0.118,2.475,0.746,2.715,2.025
					l0.688,3.675c0.238,1.275-0.584,2.512-1.855,2.767c-1.562,0.315-3.729,0.679-5.853,0.793c-1.487,0.08-2.793-0.987-3.03-2.459
					l-0.377-2.341C612.813,1145.903,613.678,1144.521,615.07,1144.104z"/>
				<path style="fill:#FFC197;" d="M615.104,1157.749c1.612-0.482,3.774-1.04,5.629-1.211c1.282-0.117,2.448,0.737,2.685,2.004
					l0.682,3.638c0.236,1.262-0.577,2.484-1.836,2.738c-1.546,0.311-3.69,0.67-5.791,0.784c-1.473,0.079-2.765-0.978-2.999-2.434
					l-0.374-2.317C612.871,1159.531,613.727,1158.162,615.104,1157.749z"/>
				<path style="fill:#FFC197;" d="M621.328,1168.53c1.37-0.41,3.209-0.885,4.784-1.029c1.091-0.101,2.082,0.627,2.283,1.702
					l0.58,3.093c0.2,1.072-0.491,2.112-1.562,2.327c-1.313,0.266-3.137,0.57-4.923,0.667c-1.252,0.067-2.35-0.831-2.55-2.068
					l-0.317-1.97C619.43,1170.044,620.156,1168.881,621.328,1168.53z"/>
				<path style="fill:#FFC197;" d="M631.819,1178.06c1.188-0.355,2.783-0.768,4.15-0.893c0.945-0.087,1.806,0.544,1.981,1.478
					l0.502,2.682c0.175,0.93-0.425,1.832-1.352,2.02c-1.141,0.229-2.723,0.494-4.272,0.578c-1.086,0.058-2.039-0.721-2.211-1.795
					l-0.276-1.708C630.172,1179.373,630.803,1178.363,631.819,1178.06z"/>
			</g>
			<path style="fill:#B2443B;" d="M616.005,1295.746c-0.694,8.659-1.475,17.244-2.354,25.252h-64.19
				c4.186-12.187,9.36-26.623,14.719-41.267c0.013-0.013,0.013-0.013,0.013-0.013S575.991,1306.219,616.005,1295.746z"/>
		</g>
		<g>
			<g>
				<path style="fill:#EFA26F;" d="M2024.834,1165.296l-26.323,33.024c0,0-8.449-2.369-13.119,6.129
					c-4.671,8.498-22.468,58.154-22.468,58.154l-31.664-26.754c1.205-1.354,27.728-54.977,29.522-63.891
					c1.811-8.912-5.724-27.326,11.071-41.211c9.135-7.545,12.697-19.384,14.059-28.575c0.488-3.37,0.695-6.383,0.756-8.713
					c0.039-1.218,0.7-2.193,1.619-2.731c1.003-0.59,2.295-0.647,3.4,0.063c2.836,1.849,6.097,5.104,7.641,10.708
					c1.137,4.079-0.287,9.897-0.813,15.968c7.428-3.572,20.496,1.208,25.738,5.238
					C2033.228,1129.586,2024.834,1165.296,2024.834,1165.296z"/>
				<path style="fill:#FFC197;" d="M1987.117,1102.087l-1.205,0.086c0.488-3.37-0.544-10.583-0.482-12.914
					c0.039-1.218,2.191-0.279,2.825,0.735c0.452,0.464,0.796,1.793,0.913,2.466c0.346,1.946,0.717,4.554,0.66,6.747
					C1989.805,1100.732,1988.645,1101.986,1987.117,1102.087z"/>
			</g>
			<path style="fill:#B2443B;" d="M1980.207,1221.526c0,0-1.801,12.728-4.727,30.734c-0.018,0.122-0.037,0.245-0.061,0.362
				c-0.074,0.492-0.153,0.977-0.233,1.45c0,0.024-0.007,0.056-0.013,0.08c-0.073,0.467-0.147,0.929-0.228,1.389
				c-0.228,1.383-0.46,2.784-0.719,4.345c-0.265,1.586-0.534,3.196-0.812,4.837c-0.283,1.659-0.564,3.349-0.867,5.058
				c-2.813,16.396-6.219,34.734-9.857,51.217h-78.164c11.498-23.519,29.405-57.271,43.866-84.089
				c0.872-1.623,1.733-3.215,2.581-4.781c11.492-21.27,20.25-37.169,20.834-38.226c0.018-0.037,0.031-0.055,0.031-0.055
				s25.484,5.758,28.194,22.965C1980.28,1218.293,1980.342,1219.867,1980.207,1221.526z"/>
			<g>
				<g>
					<path style="fill:#EFCBAB;" d="M1992.781,1204.397l-1.195-0.114c-3.918-0.376-6.895-2.606-6.618-4.959l17.144-145.778
						l8.838,0.849l-10.863,146.458C1999.914,1203.172,1996.627,1204.767,1992.781,1204.397z"/>
				</g>
				<path style="fill:#EFCBAB;" d="M2101.918,1066.699l-191.881-18.399c-5.413-0.519-9.416-5.371-8.897-10.783l16.984-177.121
					c0.52-5.412,5.372-9.416,10.784-8.896l191.881,18.399c5.412,0.519,9.416,5.371,8.896,10.783l-16.983,177.121
					C2112.182,1063.215,2107.33,1067.219,2101.918,1066.699z"/>
				<path style="fill:#FCECDB;" d="M2068.048,1054.053l-122.356-11.732c-19.023-1.824-33.098-18.883-31.273-37.907l10.451-108.993
					c1.824-19.025,18.883-33.099,37.908-31.274l122.356,11.732c19.024,1.824,33.098,18.883,31.274,37.909l-10.453,108.992
					C2104.132,1041.804,2087.072,1055.877,2068.048,1054.053z"/>
				<path style="fill:#B2443B;" d="M2036.531,951.152c9.102-4.694,14.115-12.426,15.038-23.199
					c0.786-9.175-1.936-16.869-8.167-23.101c-5.943-5.881-13.607-9.225-22.991-10.029c-9.384-0.806-17.453,1.192-24.201,5.979
					c-7.202,5.082-11.197,12.205-11.983,21.374c-0.916,10.662,2.654,19.138,10.711,25.411
					c-12.771,4.813-19.751,14.259-20.962,28.338c-0.958,11.197,2.052,20.531,9.04,28.006c6.594,7.011,15.598,11.006,27.01,11.983
					c11.412,0.977,21.079-1.494,28.994-7.425c7.922-5.924,12.371-14.539,13.336-25.848
					C2053.572,968.465,2048.301,957.963,2036.531,951.152z M2031.842,979.521c-0.528,6.104-2.514,10.811-5.967,14.129
					c-3.454,3.313-8.223,4.713-14.301,4.191c-5.975-0.516-10.375-2.698-13.213-6.552c-2.84-3.859-3.994-8.837-3.473-14.94
					c0.504-5.887,2.52-10.57,6.041-14.042c3.768-3.885,8.475-5.58,14.129-5.102c5.759,0.498,10.121,2.864,13.09,7.11
					C2031.11,968.563,2032.346,973.627,2031.842,979.521z M2032.278,927.425c-0.394,4.585-2.028,8.284-4.898,11.1
					c-2.876,2.813-6.552,4.03-11.031,3.65c-4.479-0.388-7.915-2.293-10.306-5.722c-2.206-3.092-3.11-6.927-2.717-11.511
					c0.356-4.161,2.004-7.375,4.936-9.648c2.937-2.267,6.482-3.232,10.637-2.876c4.377,0.374,7.787,1.905,10.246,4.584
					C2031.596,919.688,2032.646,923.16,2032.278,927.425z"/>
			</g>
			<g>
				<path style="fill:#FFB27D;" d="M2026.004,1125.695l-31.727,4.121c-2.678,0.427-4.595-0.67-5.021-3.348l-0.795-4.987
					c-0.427-2.678,1.415-5.218,4.093-5.646l25.694-5.391c3.346-0.662,6.68,1.592,7.783,4.328
					C2026.031,1114.773,2031.275,1125.089,2026.004,1125.695z"/>
				<path style="fill:#FFB27D;" d="M2029.394,1140.934l-32.535,5.188c-4.231,0.675-8.245-2.234-8.92-6.467l0,0
					c-0.675-4.23,2.235-8.245,6.466-8.92l32.536-5.188c4.231-0.676,7.909-0.722,8.92,6.466l0,0
					C2037.537,1137.956,2033.625,1140.259,2029.394,1140.934z"/>
				<path style="fill:#FFB27D;" d="M2028.736,1153.797l-25.965,2.955c-3.652,0.582-6.782-0.797-7.363-4.449h-0.002
					c-0.581-3.65,1.93-7.115,5.582-7.697l25.631-4.087c3.651-0.582,7.302-1.323,7.698,5.581l0,0
					C2034.945,1150.936,2032.392,1153.285,2028.736,1153.797z"/>
				<path style="fill:#FFB27D;" d="M2029.153,1165.216l-15.028,2.396c-3.15,0.502-6.139-1.665-6.642-4.815l0,0
					c-0.502-3.15,1.663-6.14,4.815-6.642l15.027-2.396c3.15-0.502,6.14,1.665,6.642,4.815l0,0
					C2034.471,1161.725,2032.304,1164.713,2029.153,1165.216z"/>
				<path style="fill:#FFC197;" d="M1989.942,1118.941c1.92-0.505,4.492-1.077,6.685-1.204c1.517-0.088,2.857,0.967,3.086,2.469
					l0.66,4.315c0.229,1.497-0.779,2.907-2.273,3.155c-1.835,0.306-4.377,0.645-6.858,0.694c-1.739,0.036-3.222-1.261-3.44-2.987
					l-0.348-2.747C1987.24,1120.953,1988.302,1119.373,1989.942,1118.941z"/>
				<path style="fill:#FFC197;" d="M1989.446,1134.864c1.899-0.5,4.444-1.066,6.615-1.192c1.5-0.087,2.827,0.957,3.054,2.443
					l0.653,4.271c0.227,1.481-0.771,2.877-2.251,3.122c-1.815,0.303-4.331,0.638-6.787,0.687c-1.721,0.036-3.187-1.248-3.404-2.955
					l-0.344-2.719C1986.771,1136.854,1987.821,1135.291,1989.446,1134.864z"/>
				<path style="fill:#FFC197;" d="M1996.283,1147.688c1.615-0.426,3.777-0.906,5.623-1.013c1.277-0.075,2.404,0.813,2.598,2.076
					l0.554,3.631c0.192,1.26-0.655,2.445-1.913,2.655c-1.543,0.257-3.682,0.541-5.77,0.584c-1.463,0.029-2.709-1.062-2.894-2.514
					l-0.293-2.312C1994.008,1149.379,1994.902,1148.051,1996.283,1147.688z"/>
				<path style="fill:#FFC197;" d="M2008.149,1159.219c1.401-0.369,3.277-0.786,4.878-0.879c1.107-0.064,2.086,0.706,2.252,1.802
					l0.482,3.149c0.166,1.092-0.57,2.121-1.66,2.303c-1.339,0.223-3.193,0.47-5.005,0.506c-1.269,0.026-2.351-0.92-2.51-2.18
					l-0.255-2.004C2006.176,1160.687,2006.951,1159.533,2008.149,1159.219z"/>
			</g>
			<g>
				<path style="fill:#FFB93E;" d="M1975.789,1252.887c-0.074-0.172-0.223-0.454-0.309-0.626c-0.018,0.122-0.037,0.245-0.061,0.362
					c-0.074,0.492-0.153,0.977-0.233,1.45c0,0.024-0.007,0.056-0.013,0.08c-0.073,0.467-0.147,0.929-0.228,1.389
					c-0.228,1.383-0.46,2.784-0.719,4.345c0.019,0.143,0.036,0.805,0.043,0.935c0.073,1.444-0.147,2.686-0.694,3.639
					c-0.05,0.092-0.099,0.178-0.16,0.264c-0.104,0.166-0.222,0.319-0.351,0.461c-1.788,2.021-5.653,2.231-10.612,0.571
					c-5.508-1.838-11.653-5.685-17.276-10.853c-5.948-5.457-11.153-12.617-13.237-18.475c-0.135-0.374-0.252-0.736-0.356-1.099
					c-0.344-1.138-0.546-2.213-0.608-3.202v-0.038c-0.092-1.77,0.283-3.263,1.261-4.362c0.46-0.528,1.032-0.929,1.695-1.205
					c0.731-1.382,1.438-2.722,2.14-4.043c-2.711,0.159-4.947,1.069-6.49,2.814c-2.367,2.679-2.66,6.815-1.187,11.615
					c0.006,0.012,0.006,0.031,0.013,0.043c1.954,6.366,7.018,13.883,14.387,20.643c5.985,5.5,12.58,9.63,18.553,11.608
					c2.895,0.979,5.514,1.389,7.781,1.272c1.253-0.067,2.402-0.294,3.422-0.694c0.05-0.012,0.093-0.03,0.137-0.049
					c0.066-0.025,0.135-0.056,0.208-0.087c1.106-0.473,2.053-1.155,2.833-2.027
					C1978.541,1264.435,1978.565,1259.211,1975.789,1252.887z"/>
			</g>
		</g>
		<g>
			<path style="fill:#EFA26F;" d="M1556.318,1157.699c0,0.062-0.008,0.123-0.013,0.184c-0.388,6.453-1.063,11.327-1.063,11.327
				l-0.485,0.743l-18.057,27.526l-4.381,6.687c0,0-6.134-1.119-10.337,3.889c-0.756,0.904-1.45,2.005-2.034,3.35
				c-0.849,1.949-2.145,5.937-3.65,10.971c0,0.006-1.653,36.153-5.002,73.685c-0.75,8.376-1.58,16.814-2.495,24.938h-72.149
				c6.054-15.542,13.36-33.573,20.593-51.125c16.508-40.063,32.634-77.66,32.652-77.697c1.567-4.898,2.624-8.703,2.827-10.546
				c0.971-8.954-8.137-26.413,7.153-41.637c8.314-8.265,10.736-20.262,11.246-29.442c0.173-3.374-1.512-10.387-1.658-12.686
				c-0.068-1.211,2.132-0.484,2.851,0.462c0.142,0.122,0.271,0.313,0.405,0.528c0.897-0.51,2.016-0.597,3.055-0.056
				c2.962,1.567,6.478,4.475,8.505,9.864c1.255,3.275,0.843,7.915,0.701,12.874c-0.03,0.965-0.049,1.948-0.043,2.932
				c0.013-0.006,0.024-0.012,0.036-0.019c2.963-1.764,7.043-2.157,11.186-1.751c5.66,0.547,11.437,2.568,14.633,4.579
				c0.959,0.601,1.764,1.511,2.445,2.66c0.006,0.006,0.006,0.012,0.013,0.018c1.961,3.319,2.857,8.617,3.171,14.259
				c0.019,0.282,0.037,0.559,0.049,0.835C1556.668,1149.354,1556.551,1153.809,1556.318,1157.699z"/>
			<g>
				<g>
					<path style="fill:#EFCBAB;" d="M1529.856,1221.61l-1.2-0.018c-3.936-0.057-7.084-2.038-7-4.405l5.249-146.688l8.877,0.127
						l1.067,146.855C1536.865,1219.809,1533.721,1221.665,1529.856,1221.61z"/>
				</g>
				<path style="fill:#EFCBAB;" d="M1627.45,1075.503l-192.742-2.755c-5.437-0.077-9.82-4.589-9.743-10.025l2.544-177.915
					c0.077-5.438,4.589-9.821,10.025-9.743l192.741,2.756c5.437,0.077,9.82,4.589,9.743,10.024l-2.543,177.916
					C1637.397,1071.196,1632.886,1075.582,1627.45,1075.503z"/>
				<path style="fill:#FCECDB;" d="M1592.664,1065.649l-122.904-1.757c-19.11-0.273-34.521-16.133-34.249-35.243l1.565-109.481
					c0.273-19.11,16.132-34.523,35.243-34.249l122.904,1.757c19.11,0.272,34.522,16.132,34.249,35.242l-1.564,109.482
					C1627.635,1050.51,1611.775,1065.923,1592.664,1065.649z"/>
				<path style="fill:#B2443B;" d="M1563.317,967.015c-5.888-7.811-13.754-11.72-23.599-11.72c-5.138,0-9.852,0.965-14.129,2.889
					h-0.319c6.097-9.631,14.448-19.69,25.043-30.182c2.354-2.354,3.533-4.707,3.533-7.067c0-2.674-0.965-4.923-2.894-6.742
					c-1.925-1.819-4.229-2.729-6.902-2.729c-2.68,0-7.491,3.534-14.447,10.596c-24.085,24.514-36.124,47.523-36.124,69.039
					c0,11.664,3.367,21.46,10.115,29.375c7.165,8.457,16.477,12.686,27.932,12.686c11.88,0,21.516-3.743,28.902-11.235
					c7.381-7.491,11.075-17.183,11.075-29.062C1571.504,982.698,1568.774,974.082,1563.317,967.015z M1545.815,1007.797
					c-3.319,4.172-7.867,6.256-13.644,6.256c-5.783,0-10.275-2.299-13.489-6.901c-2.784-4.068-4.174-9.151-4.174-15.253
					c0-4.708,0.91-8.506,2.729-11.394c3.318-5.352,8.456-8.032,15.413-8.032c5.782,0,10.171,1.955,13.164,5.863
					c2.998,3.909,4.498,8.807,4.498,14.688C1550.313,999.021,1548.813,1003.943,1545.815,1007.797z"/>
			</g>
			<g>
				<path style="fill:#FFB27D;" d="M1552.787,1130.071l-30.896,6.958c-2.602,0.665-4.59-0.24-5.256-2.841l-1.238-4.843
					c-0.666-2.602,0.918-5.273,3.519-5.938l24.835-7.66c3.236-0.959,6.729,0.96,8.066,3.556
					C1551.816,1119.303,1557.929,1128.992,1552.787,1130.071z"/>
				<path style="fill:#FFB27D;" d="M1557.52,1144.781l-31.597,8.084c-4.108,1.052-8.331-1.45-9.383-5.559l0,0
					c-1.052-4.109,1.45-8.332,5.56-9.384l31.597-8.083c4.109-1.052,7.73-1.434,9.384,5.559l0,0
					C1565.273,1141.104,1561.629,1143.73,1557.52,1144.781z"/>
				<path style="fill:#FFB27D;" d="M1558.047,1157.521l-25.325,5.283c-3.547,0.908-6.758-0.167-7.665-3.713l0,0
					c-0.907-3.546,1.252-7.189,4.799-8.097l24.891-6.369c3.547-0.907,7.078-1.971,8.099,4.798l0,0
					C1563.904,1154.135,1561.603,1156.684,1558.047,1157.521z"/>
				<path style="fill:#FFB27D;" d="M1559.499,1168.738l-14.594,3.734c-3.061,0.783-6.204-1.08-6.987-4.14l0,0
					c-0.782-3.06,1.08-6.203,4.141-6.986l14.594-3.734c3.06-0.782,6.204,1.08,6.986,4.14l0,0
					C1564.422,1164.812,1562.56,1167.955,1559.499,1168.738z"/>
				<path style="fill:#FFC197;" d="M1516.625,1126.706c1.846-0.674,4.328-1.472,6.479-1.798c1.487-0.225,2.905,0.692,3.269,2.152
					l1.044,4.193c0.362,1.455-0.504,2.938-1.953,3.318c-1.781,0.468-4.257,1.034-6.697,1.311c-1.711,0.193-3.29-0.949-3.663-2.631
					l-0.595-2.676C1514.144,1128.936,1515.046,1127.281,1516.625,1126.706z"/>
				<path style="fill:#FFC197;" d="M1517.589,1142.446c1.827-0.667,4.284-1.457,6.412-1.778c1.472-0.224,2.874,0.685,3.233,2.129
					l1.034,4.15c0.357,1.439-0.498,2.906-1.934,3.284c-1.763,0.463-4.212,1.022-6.628,1.296c-1.693,0.191-3.256-0.939-3.625-2.604
					l-0.589-2.647C1515.134,1144.653,1516.026,1143.016,1517.589,1142.446z"/>
				<path style="fill:#FFC197;" d="M1525.499,1154.462c1.554-0.566,3.642-1.238,5.45-1.512c1.252-0.19,2.444,0.582,2.75,1.81
					l0.878,3.528c0.305,1.224-0.423,2.471-1.643,2.792c-1.498,0.395-3.581,0.869-5.635,1.102c-1.44,0.164-2.769-0.798-3.082-2.213
					l-0.499-2.251C1523.411,1156.338,1524.171,1154.946,1525.499,1154.462z"/>
				<path style="fill:#FFC197;" d="M1538.248,1164.745c1.348-0.491,3.159-1.073,4.729-1.312c1.085-0.164,2.12,0.505,2.385,1.57
					l0.762,3.061c0.264,1.062-0.367,2.143-1.426,2.421c-1.299,0.342-3.105,0.755-4.886,0.956c-1.25,0.142-2.401-0.692-2.674-1.919
					l-0.435-1.953C1536.438,1166.372,1537.096,1165.166,1538.248,1164.745z"/>
			</g>
			<path style="fill:#739AF0;" d="M1511.296,1296.06c-0.75,8.376-1.58,16.814-2.495,24.938h-72.149
				c6.054-15.542,13.36-33.573,20.593-51.125C1457.244,1269.873,1471.404,1300.036,1511.296,1296.06z"/>
		</g>
		<g>
			<g>
				<path style="fill:#EFA26F;" d="M903.863,1320.033l-1.869,0.965h-35.539c-1.58-12.284-3.725-28.103-5.315-36.775
					c-0.406-2.199-0.775-3.938-1.089-5.045c-0.528-1.861-1.314-3.318-2.225-4.455c-3.454-4.32-8.708-4.068-8.708-4.068l-3.921-8.155
					l-13.225-27.508v-0.006l-0.369-0.769c0,0-0.03-4.757,0.43-10.994c0-0.055,0.007-0.117,0.013-0.179
					c0.276-3.761,0.731-8.044,1.475-12.144c0.043-0.264,0.093-0.528,0.142-0.793v-0.006c1.033-5.371,2.569-10.336,4.88-13.262
					c0,0,0-0.006,0.006-0.006c0.799-1.015,1.69-1.782,2.685-2.237c3.331-1.53,9.156-2.734,14.676-2.52
					c4.018,0.147,7.866,1.051,10.466,3.122c0.129-0.941,0.24-1.887,0.332-2.814c0.276-2.594,0.455-5.102,0.823-7.325l0.006-0.031
					c0.308-1.869,0.75-3.54,1.488-4.897c2.636-4.905,6.372-7.246,9.414-8.365c1.064-0.387,2.126-0.16,2.919,0.442
					c0.092,0.062,0.185,0.142,0.271,0.222c0.743,0.701,1.148,1.752,0.928,2.895c-0.432,2.114-0.86,4.861-1.125,7.982
					c-0.012,0.104-0.025,0.21-0.031,0.314c-0.694,8.867,0.104,20.673,7.018,29.664c12.71,16.544,1.745,32.123,1.536,40.825
					c-0.067,2.402,0.903,8.4,2.36,15.855C896.126,1289.466,903.261,1318.934,903.863,1320.033z"/>
				<path style="fill:#B2443B;" d="M880.293,1183.283l1.105,0.336c0.265-3.249,2.768-9.76,3.208-11.948
					c0.224-1.144-1.985-0.729-2.793,0.085c-0.521,0.334-1.126,1.5-1.379,2.105c-0.737,1.742-1.642,4.096-2.056,6.155
					C878.073,1181.444,878.889,1182.863,880.293,1183.283z"/>
			</g>
			<path style="fill:#2B478B;" d="M919.89,1320.998h-64.847c0.251-5.55,0.553-10.631,0.873-15.05
				c0.805-10.995,5.224-21.726,5.224-21.726c18.27-3.208,31.176-14.257,31.176-14.257s9.599,2.083,14.374,14.755
				C910.586,1295.063,915.17,1307.65,919.89,1320.998z"/>
			<g>
				<g>
					<path style="fill:#EFCBAB;" d="M846.889,1298.105l1.191,0.155c3.902,0.507,7.302-1.002,7.557-3.357l15.804-145.929
						l-8.805-1.146l-22.077,145.191C840.21,1295.32,843.057,1297.607,846.889,1298.105z"/>
				</g>
				<path style="fill:#EFCBAB;" d="M771.215,1139.533l191.151,24.864c5.392,0.701,10.376-3.136,11.078-8.527l22.95-176.448
					c0.701-5.391-3.137-10.375-8.527-11.076l-191.152-24.864c-5.391-0.701-10.376,3.136-11.077,8.527l-22.95,176.448
					C761.986,1133.848,765.823,1138.833,771.215,1139.533z"/>
				<path style="fill:#FCECDB;" d="M807.052,1134.761l121.891,15.854c18.953,2.465,36.477-11.024,38.941-29.977l14.123-108.579
					c2.466-18.952-11.023-36.477-29.977-38.941l-121.891-15.855c-18.952-2.465-36.476,11.025-38.94,29.978l-14.124,108.578
					C774.609,1114.771,788.1,1132.296,807.052,1134.761z"/>
				<path style="fill:#B2443B;" d="M912.404,1026.836c1.059-8.924-1.093-16.482-6.452-22.666
					c-5.359-6.188-12.556-9.814-21.583-10.883c-6.699-0.799-13.035-0.092-19.009,2.113c-6.526,2.349-11.608,6.115-15.24,11.289
					c-2.2,3.08-3.491,6.269-3.878,9.563c-0.32,2.654,0.216,5.199,1.592,7.627c1.376,2.421,3.336,3.785,5.881,4.087
					c3.595,0.43,6.256-1.144,7.971-4.715c2.164-4.695,4.535-7.921,7.104-9.666c3.029-2.01,6.982-2.728,11.854-2.151
					c3.922,0.468,6.908,1.98,8.967,4.542c2.059,2.563,2.857,5.807,2.391,9.74c-0.78,6.589-3.337,10.976-7.664,13.157
					c-0.116,0.093-4.086,1.076-11.903,2.951c-4.204,1.117-6.532,3.595-6.987,7.417c-0.615,5.211,2.495,8.542,9.329,9.999
					c12.082,2.617,17.508,9.138,16.273,19.548c-0.504,4.254-1.666,7.677-3.479,10.264c-3.84,5.15-9.488,7.283-16.924,6.398
					c-5.531-0.652-9.827-3.049-12.894-7.185c-0.56-0.713-2.445-4.389-5.647-11.019c-2.004-4.007-4.389-6.177-7.148-6.502
					c-2.662-0.314-4.954,0.38-6.877,2.095c-1.93,1.709-3.049,3.896-3.362,6.552c-1.1,9.249,2.852,17.748,11.849,25.491
					c5.673,4.88,12.869,7.836,21.589,8.868c11.266,1.334,20.945-0.756,29.032-6.263c8.548-5.776,13.483-14.189,14.792-25.246
					c1.69-14.245-3.644-24.735-15.99-31.483C905.656,1045.549,911.133,1037.577,912.404,1026.836z"/>
			</g>
			<g>
				<path style="fill:#FFB27D;" d="M838.963,1197.013l28.729,10.618c2.408,0.97,4.431,0.356,5.4-2.052l1.807-4.484
					c0.971-2.408-0.206-5.172-2.613-6.143l-22.828-10.515c-2.98-1.334-6.573,0.059-8.188,2.377
					C841.269,1186.814,834.174,1195.32,838.963,1197.013z"/>
				<path style="fill:#FFB27D;" d="M832.547,1210.509l29.255,11.787c3.805,1.532,8.173-0.326,9.704-4.13l0,0
					c1.533-3.806-0.324-8.173-4.13-9.705l-29.255-11.788c-3.805-1.532-7.227-2.36-9.705,4.131l0,0
					C825.584,1205.992,828.743,1208.976,832.547,1210.509z"/>
				<path style="fill:#FFB27D;" d="M830.414,1222.653l23.602,8.301c3.283,1.323,6.498,0.704,7.82-2.579l0,0
					c1.323-3.283-0.281-7.053-3.564-8.375l-23.047-9.286c-3.283-1.323-6.532-2.794-8.375,3.564l0,0
					C825.231,1218.658,827.112,1221.396,830.414,1222.653z"/>
				<path style="fill:#FFB27D;" d="M827.588,1233.22l13.513,5.444c2.833,1.143,6.085-0.242,7.226-3.074l0,0
					c1.143-2.834-0.242-6.085-3.075-7.227l-13.512-5.444c-2.833-1.142-6.085,0.243-7.227,3.075l0,0
					C823.372,1228.827,824.755,1232.079,827.588,1233.22z"/>
				<path style="fill:#B2443B;" d="M873.591,1198.352c-1.683-0.881-3.961-1.963-5.979-2.55c-1.398-0.405-2.874,0.292-3.409,1.645
					l-1.536,3.887c-0.532,1.349,0.107,2.88,1.448,3.431c1.647,0.677,3.947,1.535,6.252,2.112c1.616,0.403,3.275-0.489,3.849-2.054
					l0.91-2.489C875.685,1200.807,875.031,1199.105,873.591,1198.352z"/>
				<path style="fill:#B2443B;" d="M870.655,1213.317c-1.666-0.872-3.921-1.943-5.918-2.523c-1.383-0.402-2.844,0.288-3.373,1.628
					l-1.521,3.846c-0.527,1.334,0.105,2.849,1.433,3.395c1.631,0.67,3.907,1.52,6.188,2.09c1.599,0.4,3.24-0.484,3.808-2.032
					l0.901-2.463C872.727,1215.746,872.08,1214.063,870.655,1213.317z"/>
				<path style="fill:#B2443B;" d="M862.005,1223.881c-1.417-0.742-3.333-1.652-5.032-2.146c-1.175-0.342-2.417,0.245-2.866,1.384
					l-1.294,3.27c-0.448,1.135,0.091,2.423,1.219,2.886c1.386,0.569,3.321,1.291,5.26,1.777c1.359,0.34,2.756-0.412,3.237-1.728
					l0.768-2.095C863.766,1225.944,863.216,1224.514,862.005,1223.881z"/>
				<path style="fill:#B2443B;" d="M848.469,1232.107c-1.229-0.643-2.891-1.433-4.364-1.86c-1.019-0.297-2.097,0.213-2.487,1.2
					l-1.121,2.836c-0.389,0.983,0.078,2.102,1.057,2.503c1.202,0.494,2.882,1.12,4.563,1.541c1.18,0.296,2.391-0.357,2.809-1.498
					l0.664-1.816C849.997,1233.898,849.519,1232.658,848.469,1232.107z"/>
			</g>
		</g>
		<g>
			<g>
				<path style="fill:#EFA26F;" d="M1817.836,1320.998h-40.002c-0.166-0.596-0.326-1.191-0.492-1.77
					c-1.887-6.828-3.546-12.359-4.578-14.842c-0.953-2.285-2.212-3.934-3.57-5.113c-4.296-3.754-9.611-2.857-9.611-2.857
					l-4.566-7.184l-19.027-29.941v-0.006l-0.503-0.793c0,0-0.652-5.249-0.965-12.193c-0.007-0.061-0.007-0.129-0.007-0.196
					c-0.19-4.185-0.245-8.979,0.037-13.601c0.019-0.294,0.037-0.596,0.056-0.891c0.437-6.065,1.487-11.744,3.65-15.271
					c0.006-0.006,0.006-0.013,0.013-0.019c0.749-1.223,1.628-2.183,2.666-2.815c3.639-2.224,10.355-4.412,16.734-4.763
					c3.939-0.215,7.756,0.271,10.639,1.881c0.153,0.086,0.301,0.172,0.448,0.265c0.025-1.063,0.019-2.114,0-3.158
					c-0.074-5.335-0.442-10.325,0.959-13.828c2.268-5.752,6.085-8.825,9.299-10.46c1.117-0.56,2.322-0.455,3.274,0.11
					c0.111,0.063,0.222,0.13,0.326,0.21c0.909,0.675,1.499,1.781,1.401,3.072c-0.196,2.477-0.319,5.685-0.19,9.304
					c0.399,9.877,2.821,22.807,11.627,31.822c16.188,16.599,6.128,35.221,7.03,44.851c0.259,2.783,2.268,9.74,5.033,18.276
					C1810.503,1300.318,1814.369,1311.394,1817.836,1320.998z"/>
				<path style="fill:#FFC197;" d="M1782.563,1195.911l1.266,0.228c-0.135-3.619,1.777-11.133,1.976-13.605
					c0.098-1.291-2.285-0.545-3.071,0.458c-0.531,0.438-1.045,1.805-1.246,2.505c-0.586,2.02-1.275,4.734-1.464,7.062
					C1779.872,1194.174,1780.957,1195.633,1782.563,1195.911z"/>
			</g>
			<path style="fill:#2B478B;" d="M1823.391,1320.998h-46.638c0.159-0.589,0.356-1.18,0.589-1.77
				c4.751-12.218,22.48-23.643,30.175-28.141c2.219-1.296,3.603-2.016,3.603-2.016S1816.146,1302.021,1823.391,1320.998z"/>
			<g>
				<g>
					<path style="fill:#EFCBAB;" d="M1761.046,1319.42l1.201,0.013c3.935,0.046,7.133-1.854,7.109-4.223l-1.475-146.774
						l-8.878-0.102l-4.842,146.78C1754.085,1317.438,1757.182,1319.375,1761.046,1319.42z"/>
				</g>
				<path style="fill:#EFCBAB;" d="M1667.241,1170.853l192.749,2.201c5.437,0.062,9.936-4.335,9.997-9.771l2.032-177.923
					c0.063-5.436-4.336-9.936-9.771-9.997l-192.75-2.201c-5.437-0.061-9.935,4.335-9.996,9.772l-2.032,177.923
					C1657.408,1166.291,1661.805,1170.791,1667.241,1170.853z"/>
				<path style="fill:#FCECDB;" d="M1702.268,1161.896l122.909,1.404c19.112,0.218,34.927-15.239,35.145-34.351l1.25-109.486
					c0.218-19.11-15.239-34.926-34.351-35.144l-122.909-1.403c-19.11-0.219-34.925,15.239-35.145,34.35l-1.25,109.485
					C1667.699,1145.863,1683.157,1161.678,1702.268,1161.896z"/>
				<path style="fill:#B2443B;" d="M1792.626,1013.185h-55.39c-7.707,0-11.56,3.08-11.56,9.232c0,6.158,3.902,9.236,11.72,9.236
					h44.309l-0.793,1.61l-37.616,81.767c-1.58,3.202-2.365,6.14-2.365,8.807s1.117,4.855,3.366,6.557
					c2.25,1.709,4.708,2.563,7.389,2.563c4.061,0,7.484-3.104,10.269-9.312l41.906-93.276c1.499-3.318,2.249-5.942,2.249-7.866
					C1806.109,1016.296,1801.617,1013.185,1792.626,1013.185z"/>
			</g>
			<g>
				<path style="fill:#FFB27D;" d="M1738.745,1216.469l33.094,7.962c2.784,0.755,4.936-0.187,5.692-2.971l1.406-5.185
					c0.757-2.785-0.903-5.682-3.688-6.438l-26.566-8.62c-3.464-1.081-7.247,0.926-8.726,3.693
					C1739.958,1204.911,1733.239,1215.228,1738.745,1216.469z"/>
				<path style="fill:#FFB27D;" d="M1733.43,1232.201l33.827,9.184c4.399,1.194,8.976-1.428,10.17-5.826l0,0
					c1.194-4.4-1.429-8.977-5.827-10.171l-33.827-9.184c-4.399-1.194-8.284-1.661-10.171,5.827l0,0
					C1725.154,1228.127,1729.03,1231.008,1733.43,1232.201z"/>
				<path style="fill:#FFB27D;" d="M1732.664,1245.884l27.131,6.074c3.797,1.03,7.264-0.072,8.294-3.868l0,0
					c1.031-3.797-1.232-7.746-5.028-8.777l-26.648-7.234c-3.797-1.031-7.574-2.229-8.777,5.029l0,0
					C1726.422,1242.152,1728.856,1244.928,1732.664,1245.884z"/>
				<path style="fill:#FFB27D;" d="M1730.927,1257.914l15.623,4.242c3.277,0.89,6.685-1.063,7.573-4.339l0,0
					c0.889-3.275-1.063-6.684-4.339-7.572l-15.624-4.241c-3.275-0.891-6.684,1.063-7.572,4.338l0,0
					C1725.697,1253.618,1727.65,1257.025,1730.927,1257.914z"/>
				<path style="fill:#FFC197;" d="M1777.658,1213.42c-1.973-0.753-4.628-1.65-6.933-2.033c-1.595-0.266-3.133,0.697-3.546,2.261
					l-1.188,4.489c-0.412,1.559,0.494,3.164,2.046,3.597c1.907,0.532,4.558,1.179,7.177,1.514c1.835,0.235,3.55-0.969,3.978-2.77
					l0.681-2.866C1780.29,1215.854,1779.347,1214.063,1777.658,1213.42z"/>
				<path style="fill:#FFC197;" d="M1776.376,1230.319c-1.953-0.745-4.581-1.633-6.862-2.013c-1.577-0.262-3.1,0.691-3.509,2.237
					l-1.175,4.444c-0.408,1.541,0.489,3.131,2.025,3.559c1.887,0.526,4.51,1.166,7.102,1.498c1.817,0.231,3.514-0.959,3.937-2.74
					l0.673-2.837C1778.98,1232.729,1778.046,1230.955,1776.376,1230.319z"/>
				<path style="fill:#FFC197;" d="M1767.687,1243.106c-1.659-0.633-3.894-1.388-5.833-1.71c-1.342-0.224-2.635,0.587-2.983,1.902
					l-0.998,3.777c-0.347,1.311,0.416,2.661,1.722,3.025c1.604,0.446,3.834,0.99,6.037,1.273c1.544,0.197,2.986-0.815,3.347-2.33
					l0.572-2.411C1769.9,1245.155,1769.107,1243.648,1767.687,1243.106z"/>
				<path style="fill:#FFC197;" d="M1753.825,1253.957c-1.44-0.549-3.378-1.204-5.061-1.483c-1.163-0.194-2.286,0.509-2.587,1.649
					l-0.867,3.276c-0.301,1.137,0.361,2.309,1.494,2.625c1.391,0.388,3.325,0.859,5.236,1.104c1.34,0.173,2.592-0.706,2.903-2.021
					l0.496-2.092C1755.746,1255.733,1755.057,1254.426,1753.825,1253.957z"/>
			</g>
		</g>
		<g>
			<g>
				<path style="fill:#EFA26F;" d="M2355.344,1297.289l-24.969,23.709h-4.855c-3.141-7.325-10.934-25.387-16.814-38.034
					c-2.649-5.716-4.916-10.325-6.182-12.347c-0.721-1.144-1.5-2.059-2.312-2.789l-0.006-0.008
					c-4.701-4.234-10.405-2.273-10.405-2.273l-4.806-5.359l-21.294-23.745l-0.559-0.627c0,0-1.341-4.506-2.631-10.552
					c-0.013-0.057-0.024-0.118-0.037-0.173c-0.774-3.644-1.524-7.829-1.948-11.922c-0.03-0.265-0.055-0.529-0.079-0.794
					c-0.504-5.377-0.412-10.515,0.965-13.925c0.006-0.006,0.006-0.013,0.006-0.019c0.484-1.18,1.117-2.15,1.936-2.857
					c2.901-2.514,8.567-5.451,14.185-6.662c3.533-0.762,7.042-0.842,9.826,0.307c-0.136-0.934-0.294-1.855-0.462-2.766
					c-0.828-4.565-1.85-8.794-1.217-12.044v-0.007c0.008-0.073,0.02-0.142,0.038-0.215c1.149-5.378,4.044-8.628,6.624-10.527
					c0.898-0.658,1.967-0.738,2.883-0.382h0.006c0.111,0.038,0.215,0.08,0.313,0.136c0.897,0.461,1.579,1.346,1.679,2.489
					c0.184,2.145,0.528,4.892,1.148,7.952c0.013,0.08,0.024,0.16,0.043,0.233c1.789,8.604,5.802,19.58,14.842,26.205
					c16.617,12.186,10.516,29.984,12.709,38.299c0.633,2.402,3.41,8.21,7.079,15.284
					C2340.078,1271.306,2354.483,1296.429,2355.344,1297.289z"/>
				<path style="fill:#2B478B;" d="M2295.28,1174.073l1.142,0.015c-0.646-3.154-0.066-10.02-0.252-12.217
					c-0.104-1.147-2.084-0.145-2.626,0.85c-0.402,0.461-0.654,1.734-0.728,2.378c-0.22,1.855-0.428,4.337-0.253,6.404
					C2292.668,1172.942,2293.832,1174.063,2295.28,1174.073z"/>
			</g>
			<path style="fill:#739AF0;" d="M2374.407,1320.998h-58.616c-4.48-19.831-7.442-34.544-7.442-34.544
				c-0.019-1.143,0.104-2.311,0.356-3.49c2.385-11.413,16.261-24.018,22.345-29.087c1.759-1.457,2.864-2.293,2.864-2.293
				S2354.016,1285.471,2374.407,1320.998z"/>
			<g>
				<g>
					<path style="fill:#EFCBAB;" d="M2297.227,1298.929l1.187-0.184c3.89-0.601,6.732-3.001,6.319-5.333l-25.561-144.539
						l-8.773,1.358l19.33,145.581C2290.034,1298.119,2293.407,1299.521,2297.227,1298.929z"/>
				</g>
				<path style="fill:#EFCBAB;" d="M2180.296,1167.786l190.493-29.485c5.373-0.831,9.088-5.908,8.257-11.281l-27.217-175.839
					c-0.831-5.373-5.907-9.089-11.28-8.257l-190.494,29.483c-5.372,0.832-9.088,5.909-8.256,11.282l27.217,175.839
					C2169.846,1164.901,2174.923,1168.617,2180.296,1167.786z"/>
				<path style="fill:#FCECDB;" d="M2213.376,1153.198l121.47-18.801c18.888-2.924,31.95-20.77,29.026-39.656l-16.747-108.205
					c-2.924-18.888-20.77-31.948-39.656-29.025l-121.472,18.801c-18.888,2.924-31.948,20.77-29.024,39.656l16.747,108.205
					C2176.643,1143.06,2194.488,1156.121,2213.376,1153.198z"/>
				<path style="fill:#B2443B;" d="M2299.904,1029.552c-1.357-12.34-5.592-21.939-12.703-28.804
					c-7.7-7.332-17.612-10.331-29.744-8.992c-11.492,1.267-20.557,6.171-27.206,14.707c-6.655,8.542-9.341,18.554-8.075,30.046
					c1.1,10.004,4.806,18.209,11.11,24.619c6.908,6.994,15.205,9.956,24.884,8.886c5.961-0.657,10.908-2.169,14.849-4.547
					l0.159-0.013c-4.111,8.634-9.975,17.466-17.595,26.487c-3.135,3.792-5.175,6.336-6.108,7.621
					c-1.476,2.205-2.108,4.271-1.899,6.182c0.283,2.557,1.376,4.695,3.294,6.422c1.912,1.728,4.143,2.453,6.698,2.17
					c8.297-0.916,19.088-13.409,32.37-37.488c4.129-7.454,7.072-14.939,8.83-22.456
					C2300.525,1046.876,2300.906,1038.598,2299.904,1029.552z M2275.402,1045.34c-2.956,3.988-7.251,6.293-12.887,6.914
					c-5.747,0.633-10.338-0.91-13.754-4.622c-3.061-3.324-4.917-7.964-5.574-13.926c-0.633-5.745,0.417-10.841,3.158-15.29
					c2.742-4.443,6.927-6.981,12.568-7.602c5.851-0.646,10.626,1.142,14.318,5.365c3.092,3.643,4.985,8.555,5.66,14.724
					C2279.52,1036.539,2278.352,1041.357,2275.402,1045.34z"/>
			</g>
			<g>
				<path style="fill:#FFB27D;" d="M2259.863,1198.494l30.177,2.149c2.552,0.257,4.302-0.884,4.558-3.436l0.478-4.751
					c0.256-2.552-1.622-4.85-4.174-5.105l-24.553-3.681c-3.193-0.442-6.218,1.87-7.11,4.513
					C2259.238,1188.184,2254.854,1198.209,2259.863,1198.494z"/>
				<path style="fill:#FFB27D;" d="M2257.499,1213.064l30.999,3.113c4.031,0.405,7.662-2.562,8.066-6.593l0,0
					c0.405-4.032-2.562-7.662-6.594-8.066l-31-3.114c-4.031-0.405-7.506-0.247-8.066,6.593l0,0
					C2249.648,1210.701,2253.467,1212.66,2257.499,1213.064z"/>
				<path style="fill:#FFB27D;" d="M2258.824,1225.172l24.676,1.366c3.479,0.35,6.357-1.124,6.707-4.603l0,0
					c0.349-3.479-2.212-6.612-5.691-6.962l-24.421-2.453c-3.479-0.35-6.966-0.849-6.961,5.69l0,0
					C2252.807,1222.813,2255.346,1224.891,2258.824,1225.172z"/>
				<path style="fill:#FFB27D;" d="M2259.057,1235.976l14.318,1.438c3.002,0.302,5.705-1.908,6.007-4.909l0,0
					c0.301-3.002-1.908-5.705-4.909-6.007l-14.319-1.438c-3.002-0.301-5.704,1.908-6.006,4.91l0,0
					C2253.846,1232.971,2256.055,1235.674,2259.057,1235.976z"/>
				<path style="fill:#2B478B;" d="M2293.536,1190.141c-1.84-0.372-4.299-0.771-6.376-0.771c-1.437,0-2.645,1.069-2.779,2.5
					l-0.385,4.11c-0.135,1.426,0.895,2.701,2.318,2.854c1.75,0.188,4.168,0.368,6.514,0.279c1.645-0.062,2.971-1.367,3.083-3.009
					l0.179-2.612C2296.199,1191.891,2295.11,1190.457,2293.536,1190.141z"/>
				<path style="fill:#2B478B;" d="M2294.879,1205.145c-1.822-0.368-4.256-0.763-6.311-0.763c-1.422,0-2.617,1.059-2.75,2.475
					l-0.382,4.067c-0.132,1.411,0.886,2.674,2.296,2.825c1.73,0.185,4.123,0.364,6.444,0.276c1.627-0.062,2.94-1.354,3.052-2.978
					l0.177-2.586C2297.514,1206.877,2296.436,1205.459,2294.879,1205.145z"/>
				<path style="fill:#2B478B;" d="M2289.127,1217.625c-1.548-0.313-3.616-0.648-5.364-0.647c-1.209,0-2.226,0.898-2.338,2.103
					l-0.324,3.458c-0.113,1.2,0.753,2.273,1.951,2.401c1.472,0.158,3.506,0.31,5.479,0.235c1.383-0.053,2.5-1.15,2.594-2.532
					l0.15-2.197C2291.367,1219.099,2290.451,1217.892,2289.127,1217.625z"/>
				<path style="fill:#2B478B;" d="M2278.557,1229.162c-1.343-0.271-3.137-0.563-4.652-0.563c-1.05,0-1.931,0.78-2.028,1.824
					l-0.281,3c-0.098,1.04,0.653,1.971,1.692,2.083c1.276,0.137,3.041,0.269,4.753,0.203c1.199-0.045,2.168-0.997,2.249-2.195
					l0.131-1.907C2280.5,1230.439,2279.705,1229.395,2278.557,1229.162z"/>
			</g>
		</g>
		<g>
			<g>
				<path style="fill:#EFA26F;" d="M1101.03,1042.452l-22.739,38.704c0,0-9.241-1.225-12.878,8.413
					c-3.644,9.648-14.906,64.566-14.906,64.566l-37.335-23.387c1.066-1.606,20.91-62.018,21.459-71.669
					c0.568-9.644-10.122-27.889,5.459-45.025c8.167-8.961,10.3-21.35,10.484-31.068c0.008-0.379,0.017-0.749,0.017-1.108
					c0.01-3.616-0.222-6.817-0.511-9.284c-0.023-0.179-0.027-0.358-0.013-0.529c0.039-1.064,0.546-1.974,1.312-2.583
					c0.961-0.776,2.315-1.024,3.58-0.452c3.264,1.524,7.185,4.453,9.646,10.12c1.811,4.128,1.189,10.462,1.546,16.929
					c7.285-4.88,21.754-1.812,27.876,1.645C1104.495,1003.614,1101.03,1042.452,1101.03,1042.452z"/>
				<path style="fill:#FFC197;" d="M1054.375,980.634c0.06,1.245-1.102,2.245-2.717,2.306l-1.084,0.047
					c0.008-0.379,0.017-0.749,0.017-1.108c0.01-3.616-0.222-6.817-0.511-9.284c-0.023-0.179-0.027-0.358-0.013-0.529
					c0.735,0.094,1.73,0.574,2.157,1.07c0.503,0.387,0.939,1.47,1.095,2.016C1053.784,976.733,1054.32,978.859,1054.375,980.634z"/>
			</g>
			<path style="fill:#F99746;" d="M1026.582,1075.617c0,0,32.804,15.673,35.94,32.706c0,0,0.155,157.091-14.96,161.887
				c-15.115,4.797-79.991,5.744-78.883-13.019S1026.582,1075.617,1026.582,1075.617z"/>
			<g>
				<g>
					<path style="fill:#EFCBAB;" d="M1081.837,1083.544l-1.192,0.141c-3.91,0.459-7.289-1.094-7.515-3.451l-13.991-146.114
						l8.816-1.036l20.274,145.454C1088.55,1080.842,1085.675,1083.094,1081.837,1083.544z"/>
				</g>
				<path style="fill:#EFCBAB;" d="M1159.474,925.924l-191.445,22.489c-5.4,0.634-10.337-3.266-10.972-8.664l-20.76-176.719
					c-0.633-5.4,3.266-10.337,8.666-10.972l191.444-22.489c5.4-0.634,10.337,3.266,10.972,8.665l20.758,176.719
					C1168.771,920.354,1164.873,925.29,1159.474,925.924z"/>
				<path style="fill:#FCECDB;" d="M1123.698,920.706l-122.078,14.341c-18.981,2.23-36.337-11.478-38.567-30.458l-12.773-108.746
					c-2.229-18.981,11.477-36.337,30.458-38.565l122.079-14.341c18.98-2.23,36.336,11.476,38.565,30.458l12.774,108.745
					C1156.387,901.121,1142.68,918.477,1123.698,920.706z"/>
				<path style="fill:#B2443B;" d="M1089.396,853.563c-0.596-4.782-2.79-7.259-6.581-7.437c-0.922-0.425-3.503-0.376-7.75,0.152
					l-6.57-53.06c-0.798-6.453-2.703-11.106-5.708-13.963c-2.932-2.802-6.92-3.884-11.953-3.263
					c-3.902,0.478-7.037,1.825-9.409,4.037c-0.087,0.074-0.172,0.153-0.252,0.233c-2.034,1.868-3.982,4.86-5.844,8.979
					l-25.756,55.924c-2.981,6.411-4.162,12.107-3.546,17.104c0.828,6.686,5.758,9.476,14.785,8.357l37.125-4.597l2.25,18.166
					c0.922,7.435,4.405,10.779,10.465,10.029c6.792-0.842,9.741-4.929,8.832-12.26l-2.268-18.321
					c4.142-0.516,7.061-1.309,8.763-2.378C1088.708,859.743,1089.846,857.175,1089.396,853.563z M1024.936,852.486
					c16.164-35.484,24.393-53.355,24.688-53.607l6.164,49.785L1024.936,852.486z"/>
			</g>
			<g>
				<path style="fill:#FFB27D;" d="M1096.622,1000.512l-0.306,0.09l-32.769,9.103c-2.116,0.658-3.896,0.296-4.994-1.16
					c-0.328-0.439-0.598-0.966-0.789-1.604l-1.586-5.129c-0.19-0.62-0.258-1.239-0.221-1.848c0.127-2.121,1.547-4.051,3.682-4.71
					l26.223-9.527c3.418-1.205,7.267,0.67,8.843,3.387C1094.705,989.113,1101.504,998.794,1096.622,1000.512z"/>
				<path style="fill:#FFB27D;" d="M1108.5,1008.933c0.243,3.104-1.652,5.118-4.177,6.357c-0.685,0.337-1.41,0.612-2.149,0.841
					l-32.385,10.019l-1.072,0.331c-2.485,0.772-5.079,0.294-7.09-1.072c-1.508-1.018-2.688-2.534-3.27-4.401
					c-0.179-0.592-0.292-1.188-0.34-1.79c-0.078-0.998,0.024-1.98,0.311-2.921c0.733-2.595,2.73-4.777,5.493-5.639l32.495-10.057
					l0.306-0.09l0.655-0.203c4.354-1.346,8.216-1.951,10.359,5.464C1108.154,1006.934,1108.426,1007.982,1108.5,1008.933z"/>
				<path style="fill:#FFB27D;" d="M1108.507,1022.886c0.284,3.612-1.731,5.796-4.77,6.773c-0.102,0.037-0.212,0.074-0.323,0.103
					l-5.929,1.544l-20.955,5.469c-2.246,0.697-4.41,0.621-6.021-0.352c-1.083-0.653-1.923-1.714-2.392-3.22
					c-0.163-0.517-0.261-1.03-0.301-1.548c-0.096-1.213,0.124-2.405,0.617-3.475c0.328-0.746,0.786-1.436,1.354-2.029
					c0.814-0.849,1.85-1.518,3.043-1.886l26.357-8.155c1.794-0.557,3.593-1.153,5.134-0.819c0,0-0.001-0.01,0.009-0.001
					c1.665,0.352,3.037,1.788,3.795,5.534C1108.326,1021.555,1108.457,1022.246,1108.507,1022.886z"/>
				<path style="fill:#FFB27D;" d="M1109.891,1035.339c0.221,2.813-1.526,5.516-4.326,6.379l-15.453,4.781
					c-1.886,0.584-3.847,0.208-5.359-0.866c-1.092-0.748-1.935-1.854-2.354-3.205c-0.14-0.443-0.221-0.891-0.256-1.333
					c-0.067-0.856,0.047-1.688,0.316-2.477c0.616-1.8,2.06-3.305,4.01-3.903l11.017-3.41l0.046-0.014l4.392-1.356
					c0.6-0.189,1.208-0.276,1.814-0.276c0,0,0,0,0.009,0c2.623,0.002,5.076,1.713,5.889,4.347
					C1109.774,1034.448,1109.856,1034.896,1109.891,1035.339z"/>
				<path style="fill:#FFC197;" d="M1067.246,1006.887c-1.885,0.594-4.506,1.329-7.104,1.761c-0.553,0.09-1.095,0.048-1.589-0.103
					c-0.328-0.439-0.598-0.966-0.789-1.604l-1.586-5.129c-0.19-0.62-0.258-1.239-0.221-1.848c0.354-0.444,0.835-0.814,1.396-1.047
					c1.941-0.824,4.563-1.807,6.854-2.271c1.584-0.322,3.15,0.586,3.622,2.13l1.335,4.448
					C1069.635,1004.76,1068.788,1006.396,1067.246,1006.887z"/>
				<path style="fill:#FFC197;" d="M1069.014,1023.628c-1.865,0.591-4.459,1.324-7.039,1.745c-0.121,0.02-0.234,0.027-0.348,0.036
					c-1.508-1.018-2.688-2.534-3.27-4.401c-0.179-0.592-0.292-1.188-0.34-1.79c-0.078-0.998,0.024-1.98,0.311-2.921
					c0.266-0.229,0.564-0.414,0.894-0.553c1.925-0.814,4.518-1.785,6.782-2.246c1.564-0.322,3.122,0.579,3.583,2.113l1.33,4.393
					C1071.377,1021.529,1070.538,1023.148,1069.014,1023.628z"/>
				<path style="fill:#FFC197;" d="M1076.669,1034.917c-1.589,0.503-3.794,1.121-5.98,1.481c-0.065,0.016-0.121,0.02-0.179,0.023
					c-1.083-0.653-1.923-1.714-2.392-3.22c-0.163-0.517-0.261-1.03-0.301-1.548c-0.096-1.213,0.124-2.405,0.617-3.475
					c1.631-0.687,3.792-1.491,5.674-1.876c1.332-0.274,2.651,0.493,3.047,1.797l1.127,3.736
					C1078.678,1033.131,1077.961,1034.503,1076.669,1034.917z"/>
				<path style="fill:#FFC197;" d="M1089.783,1044.377c-1.34,0.427-3.182,0.949-5.031,1.256c-1.092-0.748-1.935-1.854-2.354-3.205
					c-0.14-0.443-0.221-0.891-0.256-1.333c-0.067-0.856,0.047-1.688,0.316-2.477c0.027-0.021,0.063-0.043,0.1-0.055
					c1.422-0.595,3.333-1.322,5-1.661c1.156-0.233,2.308,0.435,2.651,1.562l0.974,3.237
					C1091.526,1042.829,1090.902,1044.023,1089.783,1044.377z"/>
			</g>
			<path style="fill:#FFBF8F;" d="M1032.25,1070.24c0,0-12.042,7.566-18.078,21.135c0,0,17.622,13.449,26.675,16.209l13.079-13.29
				l-0.142,17.324c0,0,10.5,3.12,15.119,1.652c0,0,0.822-18.552-2.541-25.768C1066.362,1087.503,1039.401,1082.779,1032.25,1070.24z
				"/>
			<path style="fill:#F99746;" d="M1036.971,1100.394c-0.09-1.146,0.766-2.148,1.913-2.238c1.146-0.09,2.148,0.767,2.238,1.912
				c0.089,1.146-0.767,2.149-1.913,2.239S1037.061,1101.54,1036.971,1100.394z"/>
			<path style="fill:#F99746;" d="M1054.195,1320.998h-87.949c0.707-32.94,2.434-63.809,2.434-63.809l85.134-0.172
				c-0.276,0.719-0.509,1.677-0.7,2.852c-0.006,0.006-0.006,0.018-0.006,0.03
				C1051.412,1270.144,1052.566,1296.625,1054.195,1320.998z"/>
		</g>
	</g>
	<path style="fill:#2E3552;" d="M2738.243,1323.829H79.165c-2.115,0-3.846-1.731-3.846-3.847v-3.771
		c0-2.115,1.731-3.847,3.846-3.847h2659.078c2.115,0,3.847,1.731,3.847,3.847v3.771
		C2742.09,1322.098,2740.358,1323.829,2738.243,1323.829z"/>
</g>
</svg>
